<?xml version="1.0" encoding="utf-8" standalone="no"?>
<!DOCTYPE svg PUBLIC "-//W3C//DTD SVG 1.1//EN"
  "http://www.w3.org/Graphics/SVG/1.1/DTD/svg11.dtd">
<svg xmlns:xlink="http://www.w3.org/1999/xlink" width="460.8pt" height="345.6pt" viewBox="0 0 460.8 345.6" xmlns="http://www.w3.org/2000/svg" version="1.1">
 <metadata>
  <rdf:RDF xmlns:dc="http://purl.org/dc/elements/1.1/" xmlns:cc="http://creativecommons.org/ns#" xmlns:rdf="http://www.w3.org/1999/02/22-rdf-syntax-ns#">
   <cc:Work>
    <dc:type rdf:resource="http://purl.org/dc/dcmitype/StillImage"/>
    <dc:date>2022-11-13T17:58:08.481737</dc:date>
    <dc:format>image/svg+xml</dc:format>
    <dc:creator>
     <cc:Agent>
      <dc:title>Matplotlib v3.6.0, https://matplotlib.org/</dc:title>
     </cc:Agent>
    </dc:creator>
   </cc:Work>
  </rdf:RDF>
 </metadata>
 <defs>
  <style type="text/css">*{stroke-linejoin: round; stroke-linecap: butt}</style>
 </defs>
 <g id="figure_1">
  <g id="patch_1">
   <path d="M 0 345.6 
L 460.8 345.6 
L 460.8 0 
L 0 0 
z
" style="fill: #ffffff"/>
  </g>
  <g id="axes_1">
   <g id="patch_2">
    <path d="M 57.6 162.432 
L 414.72 162.432 
L 414.72 41.472 
L 57.6 41.472 
z
" style="fill: #ffffff"/>
   </g>
   <g id="matplotlib.axis_1">
    <g id="xtick_1">
     <g id="line2d_1">
      <defs>
       <path id="ma3b772cdbe" d="M 0 0 
L 0 3.5 
" style="stroke: #000000; stroke-width: 0.8"/>
      </defs>
      <g>
       <use xlink:href="#ma3b772cdbe" x="106.33068" y="162.432" style="stroke: #000000; stroke-width: 0.8"/>
      </g>
     </g>
     <g id="text_1">
      <!-- −0.4 -->
      <g transform="translate(94.189274 177.030437) scale(0.1 -0.1)">
       <defs>
        <path id="DejaVuSans-2212" d="M 678 2272 
L 4684 2272 
L 4684 1741 
L 678 1741 
L 678 2272 
z
" transform="scale(0.015625)"/>
        <path id="DejaVuSans-30" d="M 2034 4250 
Q 1547 4250 1301 3770 
Q 1056 3291 1056 2328 
Q 1056 1369 1301 889 
Q 1547 409 2034 409 
Q 2525 409 2770 889 
Q 3016 1369 3016 2328 
Q 3016 3291 2770 3770 
Q 2525 4250 2034 4250 
z
M 2034 4750 
Q 2819 4750 3233 4129 
Q 3647 3509 3647 2328 
Q 3647 1150 3233 529 
Q 2819 -91 2034 -91 
Q 1250 -91 836 529 
Q 422 1150 422 2328 
Q 422 3509 836 4129 
Q 1250 4750 2034 4750 
z
" transform="scale(0.015625)"/>
        <path id="DejaVuSans-2e" d="M 684 794 
L 1344 794 
L 1344 0 
L 684 0 
L 684 794 
z
" transform="scale(0.015625)"/>
        <path id="DejaVuSans-34" d="M 2419 4116 
L 825 1625 
L 2419 1625 
L 2419 4116 
z
M 2253 4666 
L 3047 4666 
L 3047 1625 
L 3713 1625 
L 3713 1100 
L 3047 1100 
L 3047 0 
L 2419 0 
L 2419 1100 
L 313 1100 
L 313 1709 
L 2253 4666 
z
" transform="scale(0.015625)"/>
       </defs>
       <use xlink:href="#DejaVuSans-2212"/>
       <use xlink:href="#DejaVuSans-30" x="83.789062"/>
       <use xlink:href="#DejaVuSans-2e" x="147.412109"/>
       <use xlink:href="#DejaVuSans-34" x="179.199219"/>
      </g>
     </g>
    </g>
    <g id="xtick_2">
     <g id="line2d_2">
      <g>
       <use xlink:href="#ma3b772cdbe" x="171.326585" y="162.432" style="stroke: #000000; stroke-width: 0.8"/>
      </g>
     </g>
     <g id="text_2">
      <!-- −0.2 -->
      <g transform="translate(159.185179 177.030437) scale(0.1 -0.1)">
       <defs>
        <path id="DejaVuSans-32" d="M 1228 531 
L 3431 531 
L 3431 0 
L 469 0 
L 469 531 
Q 828 903 1448 1529 
Q 2069 2156 2228 2338 
Q 2531 2678 2651 2914 
Q 2772 3150 2772 3378 
Q 2772 3750 2511 3984 
Q 2250 4219 1831 4219 
Q 1534 4219 1204 4116 
Q 875 4013 500 3803 
L 500 4441 
Q 881 4594 1212 4672 
Q 1544 4750 1819 4750 
Q 2544 4750 2975 4387 
Q 3406 4025 3406 3419 
Q 3406 3131 3298 2873 
Q 3191 2616 2906 2266 
Q 2828 2175 2409 1742 
Q 1991 1309 1228 531 
z
" transform="scale(0.015625)"/>
       </defs>
       <use xlink:href="#DejaVuSans-2212"/>
       <use xlink:href="#DejaVuSans-30" x="83.789062"/>
       <use xlink:href="#DejaVuSans-2e" x="147.412109"/>
       <use xlink:href="#DejaVuSans-32" x="179.199219"/>
      </g>
     </g>
    </g>
    <g id="xtick_3">
     <g id="line2d_3">
      <g>
       <use xlink:href="#ma3b772cdbe" x="236.32249" y="162.432" style="stroke: #000000; stroke-width: 0.8"/>
      </g>
     </g>
     <g id="text_3">
      <!-- 0.0 -->
      <g transform="translate(228.370927 177.030437) scale(0.1 -0.1)">
       <use xlink:href="#DejaVuSans-30"/>
       <use xlink:href="#DejaVuSans-2e" x="63.623047"/>
       <use xlink:href="#DejaVuSans-30" x="95.410156"/>
      </g>
     </g>
    </g>
    <g id="xtick_4">
     <g id="line2d_4">
      <g>
       <use xlink:href="#ma3b772cdbe" x="301.318395" y="162.432" style="stroke: #000000; stroke-width: 0.8"/>
      </g>
     </g>
     <g id="text_4">
      <!-- 0.2 -->
      <g transform="translate(293.366832 177.030437) scale(0.1 -0.1)">
       <use xlink:href="#DejaVuSans-30"/>
       <use xlink:href="#DejaVuSans-2e" x="63.623047"/>
       <use xlink:href="#DejaVuSans-32" x="95.410156"/>
      </g>
     </g>
    </g>
    <g id="xtick_5">
     <g id="line2d_5">
      <g>
       <use xlink:href="#ma3b772cdbe" x="366.3143" y="162.432" style="stroke: #000000; stroke-width: 0.8"/>
      </g>
     </g>
     <g id="text_5">
      <!-- 0.4 -->
      <g transform="translate(358.362737 177.030437) scale(0.1 -0.1)">
       <use xlink:href="#DejaVuSans-30"/>
       <use xlink:href="#DejaVuSans-2e" x="63.623047"/>
       <use xlink:href="#DejaVuSans-34" x="95.410156"/>
      </g>
     </g>
    </g>
    <g id="text_6">
     <!-- time -->
     <g transform="translate(224.863906 190.708562) scale(0.1 -0.1)">
      <defs>
       <path id="DejaVuSans-74" d="M 1172 4494 
L 1172 3500 
L 2356 3500 
L 2356 3053 
L 1172 3053 
L 1172 1153 
Q 1172 725 1289 603 
Q 1406 481 1766 481 
L 2356 481 
L 2356 0 
L 1766 0 
Q 1100 0 847 248 
Q 594 497 594 1153 
L 594 3053 
L 172 3053 
L 172 3500 
L 594 3500 
L 594 4494 
L 1172 4494 
z
" transform="scale(0.015625)"/>
       <path id="DejaVuSans-69" d="M 603 3500 
L 1178 3500 
L 1178 0 
L 603 0 
L 603 3500 
z
M 603 4863 
L 1178 4863 
L 1178 4134 
L 603 4134 
L 603 4863 
z
" transform="scale(0.015625)"/>
       <path id="DejaVuSans-6d" d="M 3328 2828 
Q 3544 3216 3844 3400 
Q 4144 3584 4550 3584 
Q 5097 3584 5394 3201 
Q 5691 2819 5691 2113 
L 5691 0 
L 5113 0 
L 5113 2094 
Q 5113 2597 4934 2840 
Q 4756 3084 4391 3084 
Q 3944 3084 3684 2787 
Q 3425 2491 3425 1978 
L 3425 0 
L 2847 0 
L 2847 2094 
Q 2847 2600 2669 2842 
Q 2491 3084 2119 3084 
Q 1678 3084 1418 2786 
Q 1159 2488 1159 1978 
L 1159 0 
L 581 0 
L 581 3500 
L 1159 3500 
L 1159 2956 
Q 1356 3278 1631 3431 
Q 1906 3584 2284 3584 
Q 2666 3584 2933 3390 
Q 3200 3197 3328 2828 
z
" transform="scale(0.015625)"/>
       <path id="DejaVuSans-65" d="M 3597 1894 
L 3597 1613 
L 953 1613 
Q 991 1019 1311 708 
Q 1631 397 2203 397 
Q 2534 397 2845 478 
Q 3156 559 3463 722 
L 3463 178 
Q 3153 47 2828 -22 
Q 2503 -91 2169 -91 
Q 1331 -91 842 396 
Q 353 884 353 1716 
Q 353 2575 817 3079 
Q 1281 3584 2069 3584 
Q 2775 3584 3186 3129 
Q 3597 2675 3597 1894 
z
M 3022 2063 
Q 3016 2534 2758 2815 
Q 2500 3097 2075 3097 
Q 1594 3097 1305 2825 
Q 1016 2553 972 2059 
L 3022 2063 
z
" transform="scale(0.015625)"/>
      </defs>
      <use xlink:href="#DejaVuSans-74"/>
      <use xlink:href="#DejaVuSans-69" x="39.208984"/>
      <use xlink:href="#DejaVuSans-6d" x="66.992188"/>
      <use xlink:href="#DejaVuSans-65" x="164.404297"/>
     </g>
    </g>
   </g>
   <g id="matplotlib.axis_2">
    <g id="ytick_1">
     <g id="line2d_6">
      <defs>
       <path id="m375b731ae4" d="M 0 0 
L -3.5 0 
" style="stroke: #000000; stroke-width: 0.8"/>
      </defs>
      <g>
       <use xlink:href="#m375b731ae4" x="57.6" y="139.04783" style="stroke: #000000; stroke-width: 0.8"/>
      </g>
     </g>
     <g id="text_7">
      <!-- 0.0 -->
      <g transform="translate(34.696875 142.847048) scale(0.1 -0.1)">
       <use xlink:href="#DejaVuSans-30"/>
       <use xlink:href="#DejaVuSans-2e" x="63.623047"/>
       <use xlink:href="#DejaVuSans-30" x="95.410156"/>
      </g>
     </g>
    </g>
    <g id="ytick_2">
     <g id="line2d_7">
      <g>
       <use xlink:href="#m375b731ae4" x="57.6" y="111.786955" style="stroke: #000000; stroke-width: 0.8"/>
      </g>
     </g>
     <g id="text_8">
      <!-- 0.2 -->
      <g transform="translate(34.696875 115.586174) scale(0.1 -0.1)">
       <use xlink:href="#DejaVuSans-30"/>
       <use xlink:href="#DejaVuSans-2e" x="63.623047"/>
       <use xlink:href="#DejaVuSans-32" x="95.410156"/>
      </g>
     </g>
    </g>
    <g id="ytick_3">
     <g id="line2d_8">
      <g>
       <use xlink:href="#m375b731ae4" x="57.6" y="84.52608" style="stroke: #000000; stroke-width: 0.8"/>
      </g>
     </g>
     <g id="text_9">
      <!-- 0.4 -->
      <g transform="translate(34.696875 88.325299) scale(0.1 -0.1)">
       <use xlink:href="#DejaVuSans-30"/>
       <use xlink:href="#DejaVuSans-2e" x="63.623047"/>
       <use xlink:href="#DejaVuSans-34" x="95.410156"/>
      </g>
     </g>
    </g>
    <g id="ytick_4">
     <g id="line2d_9">
      <g>
       <use xlink:href="#m375b731ae4" x="57.6" y="57.265205" style="stroke: #000000; stroke-width: 0.8"/>
      </g>
     </g>
     <g id="text_10">
      <!-- 0.6 -->
      <g transform="translate(34.696875 61.064424) scale(0.1 -0.1)">
       <defs>
        <path id="DejaVuSans-36" d="M 2113 2584 
Q 1688 2584 1439 2293 
Q 1191 2003 1191 1497 
Q 1191 994 1439 701 
Q 1688 409 2113 409 
Q 2538 409 2786 701 
Q 3034 994 3034 1497 
Q 3034 2003 2786 2293 
Q 2538 2584 2113 2584 
z
M 3366 4563 
L 3366 3988 
Q 3128 4100 2886 4159 
Q 2644 4219 2406 4219 
Q 1781 4219 1451 3797 
Q 1122 3375 1075 2522 
Q 1259 2794 1537 2939 
Q 1816 3084 2150 3084 
Q 2853 3084 3261 2657 
Q 3669 2231 3669 1497 
Q 3669 778 3244 343 
Q 2819 -91 2113 -91 
Q 1303 -91 875 529 
Q 447 1150 447 2328 
Q 447 3434 972 4092 
Q 1497 4750 2381 4750 
Q 2619 4750 2861 4703 
Q 3103 4656 3366 4563 
z
" transform="scale(0.015625)"/>
       </defs>
       <use xlink:href="#DejaVuSans-30"/>
       <use xlink:href="#DejaVuSans-2e" x="63.623047"/>
       <use xlink:href="#DejaVuSans-36" x="95.410156"/>
      </g>
     </g>
    </g>
    <g id="text_11">
     <!-- Amplitude -->
     <g transform="translate(28.617187 127.574656) rotate(-90) scale(0.1 -0.1)">
      <defs>
       <path id="DejaVuSans-41" d="M 2188 4044 
L 1331 1722 
L 3047 1722 
L 2188 4044 
z
M 1831 4666 
L 2547 4666 
L 4325 0 
L 3669 0 
L 3244 1197 
L 1141 1197 
L 716 0 
L 50 0 
L 1831 4666 
z
" transform="scale(0.015625)"/>
       <path id="DejaVuSans-70" d="M 1159 525 
L 1159 -1331 
L 581 -1331 
L 581 3500 
L 1159 3500 
L 1159 2969 
Q 1341 3281 1617 3432 
Q 1894 3584 2278 3584 
Q 2916 3584 3314 3078 
Q 3713 2572 3713 1747 
Q 3713 922 3314 415 
Q 2916 -91 2278 -91 
Q 1894 -91 1617 61 
Q 1341 213 1159 525 
z
M 3116 1747 
Q 3116 2381 2855 2742 
Q 2594 3103 2138 3103 
Q 1681 3103 1420 2742 
Q 1159 2381 1159 1747 
Q 1159 1113 1420 752 
Q 1681 391 2138 391 
Q 2594 391 2855 752 
Q 3116 1113 3116 1747 
z
" transform="scale(0.015625)"/>
       <path id="DejaVuSans-6c" d="M 603 4863 
L 1178 4863 
L 1178 0 
L 603 0 
L 603 4863 
z
" transform="scale(0.015625)"/>
       <path id="DejaVuSans-75" d="M 544 1381 
L 544 3500 
L 1119 3500 
L 1119 1403 
Q 1119 906 1312 657 
Q 1506 409 1894 409 
Q 2359 409 2629 706 
Q 2900 1003 2900 1516 
L 2900 3500 
L 3475 3500 
L 3475 0 
L 2900 0 
L 2900 538 
Q 2691 219 2414 64 
Q 2138 -91 1772 -91 
Q 1169 -91 856 284 
Q 544 659 544 1381 
z
M 1991 3584 
L 1991 3584 
z
" transform="scale(0.015625)"/>
       <path id="DejaVuSans-64" d="M 2906 2969 
L 2906 4863 
L 3481 4863 
L 3481 0 
L 2906 0 
L 2906 525 
Q 2725 213 2448 61 
Q 2172 -91 1784 -91 
Q 1150 -91 751 415 
Q 353 922 353 1747 
Q 353 2572 751 3078 
Q 1150 3584 1784 3584 
Q 2172 3584 2448 3432 
Q 2725 3281 2906 2969 
z
M 947 1747 
Q 947 1113 1208 752 
Q 1469 391 1925 391 
Q 2381 391 2643 752 
Q 2906 1113 2906 1747 
Q 2906 2381 2643 2742 
Q 2381 3103 1925 3103 
Q 1469 3103 1208 2742 
Q 947 2381 947 1747 
z
" transform="scale(0.015625)"/>
      </defs>
      <use xlink:href="#DejaVuSans-41"/>
      <use xlink:href="#DejaVuSans-6d" x="68.408203"/>
      <use xlink:href="#DejaVuSans-70" x="165.820312"/>
      <use xlink:href="#DejaVuSans-6c" x="229.296875"/>
      <use xlink:href="#DejaVuSans-69" x="257.080078"/>
      <use xlink:href="#DejaVuSans-74" x="284.863281"/>
      <use xlink:href="#DejaVuSans-75" x="324.072266"/>
      <use xlink:href="#DejaVuSans-64" x="387.451172"/>
      <use xlink:href="#DejaVuSans-65" x="450.927734"/>
     </g>
    </g>
   </g>
   <g id="line2d_10">
    <path d="M 73.832727 141.829262 
L 74.157707 140.489875 
L 74.482686 140.296743 
L 74.807666 140.676844 
L 75.132645 139.095715 
L 75.457625 139.048084 
L 75.782604 139.691752 
L 76.107584 140.732682 
L 76.432563 140.402165 
L 76.757543 141.32501 
L 77.407502 138.859541 
L 77.732482 138.794714 
L 78.057461 138.879492 
L 78.382441 139.908837 
L 78.70742 138.927222 
L 79.0324 139.186325 
L 79.357379 140.028746 
L 79.682359 138.831401 
L 80.007338 138.767344 
L 80.332318 137.201875 
L 80.982277 137.656601 
L 81.307256 135.959652 
L 81.957215 137.603384 
L 82.282195 137.631234 
L 82.607174 138.362066 
L 83.257133 135.926184 
L 83.582113 136.267246 
L 84.557052 139.99592 
L 85.207011 138.371147 
L 85.85697 135.277935 
L 86.181949 135.801606 
L 86.506929 137.961817 
L 86.831908 136.900227 
L 87.156888 139.025029 
L 87.481867 139.073513 
L 87.806847 139.737445 
L 88.131826 140.057056 
L 88.456806 140.791998 
L 88.781785 139.420311 
L 89.106765 140.258843 
L 89.431744 140.641795 
L 89.756724 139.403516 
L 90.081704 139.800893 
L 90.406683 139.933829 
L 90.731663 139.761634 
L 91.056642 141.580282 
L 91.381622 141.659782 
L 91.706601 137.545642 
L 92.031581 136.386401 
L 92.35656 138.370352 
L 92.68154 138.793439 
L 93.006519 137.84869 
L 93.331499 138.256428 
L 93.981458 138.216539 
L 94.306437 139.194916 
L 94.631417 139.612832 
L 94.956396 139.20207 
L 95.281376 139.070304 
L 95.606355 139.226136 
L 95.931335 137.607536 
L 96.256314 137.681759 
L 96.906274 135.014144 
L 97.556233 139.333835 
L 97.881212 137.917341 
L 98.206192 137.140573 
L 98.531171 138.337089 
L 98.856151 138.157651 
L 99.18113 139.641868 
L 99.50611 137.748418 
L 99.831089 137.954952 
L 100.156069 136.871242 
L 100.481048 134.602572 
L 100.806028 134.921156 
L 101.131007 134.671041 
L 101.455987 137.091085 
L 101.780966 136.440861 
L 102.105946 137.306252 
L 102.430925 135.667504 
L 102.755905 137.054915 
L 103.730844 135.468773 
L 104.055823 136.745578 
L 104.380803 138.740729 
L 104.705782 137.898974 
L 105.030762 137.840831 
L 105.355741 136.636239 
L 106.0057 137.744515 
L 106.655659 139.88081 
L 106.980639 136.951423 
L 107.305618 137.266711 
L 107.630598 137.380345 
L 107.955577 139.008259 
L 108.280557 139.514455 
L 108.605536 138.756854 
L 108.930516 138.854931 
L 109.580475 139.99236 
L 109.905455 138.340381 
L 110.230434 138.7184 
L 110.555414 138.384082 
L 110.880393 138.414292 
L 111.205373 140.193868 
L 111.530352 138.613023 
L 111.855332 137.716633 
L 112.180311 137.945546 
L 112.505291 137.924788 
L 112.83027 136.938421 
L 113.15525 136.420344 
L 113.805209 138.01925 
L 114.130188 136.878279 
L 114.455168 136.682757 
L 114.780147 136.883269 
L 115.105127 137.588819 
L 115.430106 137.319225 
L 115.755086 135.449575 
L 116.080066 135.495666 
L 116.405045 135.230455 
L 116.730025 136.876828 
L 117.055004 136.813146 
L 117.379984 138.634403 
L 117.704963 138.102882 
L 118.029943 138.276961 
L 118.354922 137.088157 
L 118.679902 138.472132 
L 119.004881 136.27887 
L 119.65484 138.147941 
L 119.97982 137.514981 
L 120.629779 135.737691 
L 120.954758 136.325237 
L 121.279738 137.539195 
L 121.604717 137.779994 
L 121.929697 138.437234 
L 122.254676 138.099203 
L 122.579656 137.594 
L 122.904636 139.150291 
L 123.229615 138.796624 
L 123.554595 139.355145 
L 123.879574 139.436307 
L 124.204554 140.108051 
L 124.529533 139.466012 
L 124.854513 140.049841 
L 125.179492 139.44172 
L 125.504472 138.190154 
L 125.829451 140.006597 
L 126.47941 139.914343 
L 126.80439 139.376342 
L 127.129369 139.89122 
L 127.779328 139.079294 
L 128.104308 140.827163 
L 128.429287 140.177066 
L 129.079247 140.175707 
L 129.404226 139.95069 
L 129.729206 139.501542 
L 130.054185 139.427961 
L 130.379165 138.730096 
L 130.704144 139.019458 
L 131.029124 140.717307 
L 131.354103 138.541055 
L 131.679083 139.151302 
L 132.329042 138.197998 
L 132.654021 138.049547 
L 132.979001 138.548915 
L 133.30398 140.064254 
L 133.62896 138.184449 
L 134.603898 140.519999 
L 134.928878 140.276121 
L 135.253857 141.368834 
L 135.578837 139.783631 
L 135.903817 139.94541 
L 136.553776 139.638177 
L 136.878755 138.861319 
L 137.203735 139.92371 
L 137.528714 140.116167 
L 137.853694 139.556478 
L 138.178673 139.947037 
L 138.503653 140.97848 
L 138.828632 142.610117 
L 139.153612 143.409042 
L 139.803571 142.938566 
L 140.12855 144.059737 
L 140.45353 142.651615 
L 140.778509 141.876256 
L 141.103489 141.64863 
L 141.428468 142.337234 
L 141.753448 143.330532 
L 142.403407 141.891324 
L 142.728387 142.837517 
L 143.053366 143.344618 
L 143.378346 142.473503 
L 143.703325 142.68781 
L 144.028305 144.01864 
L 144.353284 144.038689 
L 145.003243 143.71654 
L 145.328223 144.302643 
L 145.653202 143.973851 
L 145.978182 143.855259 
L 146.303161 144.166394 
L 147.2781 142.669019 
L 147.603079 143.300133 
L 147.928059 144.39047 
L 148.253038 143.701992 
L 148.578018 141.715294 
L 148.902998 141.654219 
L 149.227977 141.343007 
L 149.552957 141.516604 
L 149.877936 143.293299 
L 150.202916 140.539555 
L 150.527895 141.033585 
L 150.852875 142.048926 
L 151.177854 144.020334 
L 151.502834 143.183218 
L 151.827813 143.962508 
L 152.152793 143.759808 
L 152.477772 143.112718 
L 153.127731 141.12614 
L 153.452711 140.506993 
L 153.77769 141.908938 
L 154.10267 142.657605 
L 154.752629 140.458302 
L 155.077609 140.670657 
L 155.727568 142.576173 
L 156.052547 142.309889 
L 156.377527 140.940084 
L 156.702506 141.564342 
L 157.027486 141.361695 
L 157.352465 141.015497 
L 157.677445 139.706968 
L 158.002424 141.043665 
L 158.652383 140.558728 
L 158.977363 138.969972 
L 159.627322 140.686967 
L 159.952301 140.239837 
L 160.277281 140.24257 
L 160.60226 139.211215 
L 160.92724 137.551158 
L 161.252219 139.557584 
L 161.577199 140.268647 
L 161.902179 139.034641 
L 162.227158 141.098828 
L 162.552138 139.711677 
L 163.527076 137.159031 
L 163.852056 136.982628 
L 164.177035 136.387049 
L 164.502015 135.504255 
L 165.151974 136.648879 
L 165.801933 133.218522 
L 166.126912 132.836603 
L 166.451892 132.967574 
L 166.776871 132.766716 
L 167.101851 133.045935 
L 167.42683 132.498757 
L 167.75181 134.339115 
L 168.07679 134.137979 
L 168.401769 134.138009 
L 168.726749 134.556777 
L 169.051728 134.584643 
L 169.701687 131.791348 
L 170.026667 131.783579 
L 170.351646 129.155483 
L 170.676626 128.142853 
L 171.001605 128.730464 
L 171.326585 130.669565 
L 171.651564 131.586598 
L 171.976544 131.279818 
L 172.301523 131.303484 
L 172.626503 132.640366 
L 172.951482 131.791828 
L 173.276462 131.659502 
L 173.601441 130.452546 
L 173.926421 130.184168 
L 174.2514 128.973544 
L 174.57638 130.015631 
L 174.90136 130.375994 
L 175.226339 132.072343 
L 175.551319 132.786478 
L 175.876298 132.602669 
L 176.201278 131.085027 
L 176.526257 132.126375 
L 176.851237 132.202055 
L 177.176216 132.004238 
L 177.501196 133.059376 
L 177.826175 132.540963 
L 178.151155 131.760013 
L 178.476134 130.365421 
L 178.801114 130.482669 
L 179.126093 132.072831 
L 179.776052 132.569436 
L 180.101032 135.12897 
L 181.075971 132.303079 
L 181.40095 133.114794 
L 181.72593 133.181569 
L 182.050909 133.07761 
L 182.375889 131.505222 
L 182.700868 131.124149 
L 183.025848 132.750511 
L 183.350827 132.336763 
L 183.675807 133.986381 
L 184.325766 134.444271 
L 184.650745 135.633446 
L 184.975725 135.139476 
L 185.300704 134.387132 
L 185.625684 134.137183 
L 185.950663 134.101854 
L 186.275643 134.573745 
L 186.600622 136.810152 
L 186.925602 136.141155 
L 187.250581 136.27902 
L 187.575561 135.057642 
L 188.22552 136.898156 
L 188.875479 140.423805 
L 189.200459 139.545493 
L 189.525438 138.33206 
L 189.850418 139.34131 
L 190.175397 139.863312 
L 190.500377 140.791004 
L 190.825356 140.835604 
L 191.150336 141.124313 
L 191.475315 141.831887 
L 191.800295 144.719029 
L 192.125274 144.08798 
L 192.450254 143.83303 
L 192.775233 144.850925 
L 193.100213 145.081654 
L 193.425192 144.827867 
L 193.750172 145.344782 
L 194.075152 146.98283 
L 194.400131 147.122253 
L 194.725111 148.198974 
L 195.05009 147.643955 
L 195.37507 144.953339 
L 195.700049 144.907929 
L 196.025029 146.226309 
L 196.350008 144.916401 
L 196.999967 148.383488 
L 197.324947 148.258692 
L 197.649926 147.745341 
L 197.974906 146.414387 
L 198.299885 146.439978 
L 198.624865 146.733653 
L 198.949844 146.438971 
L 199.274824 147.268061 
L 199.599803 148.69961 
L 199.924783 149.034362 
L 200.249762 149.198607 
L 200.574742 148.495083 
L 200.899722 149.413189 
L 201.224701 149.162716 
L 201.549681 149.449352 
L 202.19964 147.896849 
L 202.524619 148.990878 
L 202.849599 147.455365 
L 203.174578 149.034782 
L 203.499558 149.241729 
L 203.824537 149.018445 
L 204.474496 148.909685 
L 204.799476 149.139678 
L 205.449435 151.765595 
L 206.099394 152.113937 
L 206.749353 152.163509 
L 207.399312 154.722148 
L 207.724292 154.638787 
L 208.049271 156.252088 
L 208.374251 156.479877 
L 209.02421 153.531143 
L 209.349189 152.516934 
L 209.674169 152.444533 
L 210.324128 154.259485 
L 210.974087 153.100632 
L 211.299066 154.284524 
L 211.624046 153.593999 
L 212.274005 155.225759 
L 212.598984 154.545459 
L 212.923964 152.476976 
L 213.248943 152.785839 
L 213.573923 154.827405 
L 213.898903 154.988857 
L 214.223882 153.4371 
L 214.873841 155.317487 
L 215.198821 153.557394 
L 215.5238 153.739721 
L 215.84878 153.451107 
L 216.498739 153.60057 
L 216.823718 153.633546 
L 217.148698 152.23191 
L 217.473677 152.879762 
L 217.798657 153.865124 
L 218.123636 154.05958 
L 218.773595 152.549574 
L 219.098575 152.082202 
L 219.423554 152.535865 
L 219.748534 153.356847 
L 220.073514 152.957975 
L 220.398493 153.26837 
L 220.723473 152.650131 
L 221.048452 150.264874 
L 221.373432 150.463861 
L 221.698411 152.264486 
L 222.023391 151.560195 
L 222.34837 150.27519 
L 222.67335 149.951558 
L 222.998329 150.090504 
L 223.323309 151.442592 
L 223.648288 149.688265 
L 223.973268 150.055696 
L 224.298247 148.663412 
L 224.623227 149.538964 
L 224.948206 148.424275 
L 225.273186 148.724534 
L 225.598165 148.770414 
L 225.923145 149.032985 
L 226.248124 146.869912 
L 226.573104 147.509359 
L 226.898084 143.563515 
L 227.223063 141.761975 
L 227.548043 142.226839 
L 227.873022 140.255377 
L 228.198002 140.192711 
L 228.847961 135.000493 
L 229.17294 134.210121 
L 229.822899 127.889866 
L 230.147879 123.017194 
L 231.447797 94.16724 
L 231.772776 86.995905 
L 232.422735 66.362792 
L 232.747715 61.749795 
L 233.072695 59.62652 
L 234.047633 50.147841 
L 234.372613 49.446635 
L 234.697592 47.565384 
L 235.022572 46.970182 
L 236.32249 61.41893 
L 237.297428 78.330393 
L 237.947387 86.33527 
L 238.597346 95.0105 
L 239.247305 103.568652 
L 240.872203 126.550741 
L 241.197183 128.797962 
L 241.522162 133.608043 
L 241.847142 135.48864 
L 242.172121 138.305288 
L 242.497101 138.367353 
L 243.14706 142.081435 
L 244.121998 150.019279 
L 244.446978 148.817655 
L 244.771957 149.665927 
L 245.096937 152.698436 
L 245.421916 153.529271 
L 245.746896 154.752709 
L 246.071876 155.305581 
L 246.396855 156.320268 
L 246.721835 156.933818 
L 247.046814 156.687123 
L 247.371794 155.660609 
L 247.696773 155.101391 
L 248.021753 156.06203 
L 248.346732 156.063487 
L 248.671712 156.356733 
L 248.996691 154.163759 
L 249.321671 153.55861 
L 249.64665 153.413033 
L 249.97163 152.779173 
L 250.296609 153.191997 
L 251.271548 155.807555 
L 251.596527 154.539604 
L 251.921507 155.335908 
L 252.571466 153.585213 
L 252.896446 153.676744 
L 253.221425 154.797427 
L 253.546405 154.724326 
L 253.871384 154.194224 
L 254.196364 153.286054 
L 254.521343 151.771061 
L 254.846323 151.274774 
L 255.171302 150.256828 
L 256.146241 152.654313 
L 256.47122 152.765966 
L 256.7962 152.112605 
L 257.121179 152.87477 
L 257.446159 152.268534 
L 257.771138 152.282131 
L 258.096118 151.950037 
L 258.746077 154.905586 
L 259.071057 154.621333 
L 259.396036 154.56881 
L 259.721016 155.422748 
L 260.045995 155.19832 
L 260.370975 153.171074 
L 260.695954 152.958446 
L 261.020934 152.901801 
L 261.345913 152.563662 
L 261.995872 150.964087 
L 262.320852 152.642906 
L 262.970811 154.319654 
L 263.62077 152.691569 
L 263.945749 152.190879 
L 264.270729 149.719509 
L 264.595708 148.587038 
L 264.920688 148.447717 
L 265.245667 149.736039 
L 265.570647 148.854823 
L 265.895627 149.377102 
L 266.220606 148.21491 
L 266.545586 147.645025 
L 266.870565 149.276247 
L 267.195545 149.597362 
L 267.520524 149.597318 
L 267.845504 147.804996 
L 268.170483 147.996815 
L 268.495463 146.772883 
L 268.820442 148.323359 
L 269.470401 145.724147 
L 270.12036 146.268442 
L 270.44534 145.189798 
L 271.095299 144.107564 
L 271.420278 144.498899 
L 271.745258 145.263926 
L 272.070238 144.964123 
L 272.395217 145.765742 
L 272.720197 145.97899 
L 273.045176 145.420261 
L 273.370156 144.160971 
L 273.695135 143.495668 
L 274.020115 144.685671 
L 274.670074 143.378237 
L 274.995053 143.709037 
L 275.320033 143.214831 
L 275.645012 143.164115 
L 275.969992 141.464507 
L 276.294971 142.475706 
L 276.619951 141.347986 
L 276.94493 141.210264 
L 277.594889 142.698983 
L 277.919869 142.324263 
L 278.569828 141.012217 
L 278.894808 141.999299 
L 279.219787 141.179125 
L 279.544767 141.594452 
L 279.869746 140.333911 
L 280.194726 140.520215 
L 280.519705 137.933075 
L 280.844685 137.820914 
L 281.169664 137.289192 
L 281.494644 134.927714 
L 281.819623 136.838065 
L 282.469582 134.786034 
L 283.119541 135.11385 
L 283.444521 135.692139 
L 283.7695 135.117621 
L 284.09448 133.308065 
L 284.419459 133.306717 
L 284.744439 133.055419 
L 285.069419 133.005139 
L 285.394398 134.075432 
L 286.044357 138.912335 
L 286.369337 138.117208 
L 286.694316 137.911544 
L 287.019296 138.410036 
L 287.344275 138.000797 
L 287.669255 136.46691 
L 288.319214 137.575225 
L 288.644193 137.512976 
L 288.969173 135.864037 
L 289.294152 136.262102 
L 289.619132 137.053017 
L 289.944111 136.048075 
L 290.59407 136.482548 
L 290.91905 136.92826 
L 291.244029 138.241617 
L 291.569009 137.285253 
L 291.893989 137.395957 
L 292.218968 137.725496 
L 292.543948 137.752576 
L 293.193907 136.609322 
L 293.843866 137.381615 
L 294.493825 136.256288 
L 294.818804 136.959243 
L 295.143784 136.13197 
L 295.468763 138.94125 
L 295.793743 138.912102 
L 296.443702 139.853241 
L 296.768681 138.775226 
L 297.093661 139.33473 
L 297.41864 139.088705 
L 297.74362 135.92146 
L 298.0686 136.692901 
L 298.393579 136.653472 
L 298.718559 137.286958 
L 299.368518 139.518618 
L 299.693497 139.060299 
L 300.018477 138.16593 
L 300.343456 138.299426 
L 300.668436 138.749447 
L 300.993415 139.670352 
L 301.318395 140.085306 
L 301.643374 138.532572 
L 301.968354 138.077758 
L 302.618313 140.892492 
L 302.943292 140.202712 
L 303.268272 139.005985 
L 303.593251 138.263728 
L 303.918231 138.983177 
L 304.24321 139.061357 
L 304.56819 139.690369 
L 304.89317 139.257761 
L 305.218149 139.325858 
L 305.543129 138.960815 
L 305.868108 140.141189 
L 306.193088 138.847541 
L 307.168026 139.889305 
L 307.493006 139.881587 
L 307.817985 139.43663 
L 308.142965 138.369086 
L 308.792924 140.058358 
L 309.442883 138.437839 
L 309.767862 139.298175 
L 310.092842 138.953927 
L 310.417821 139.528366 
L 310.742801 140.415871 
L 311.067781 140.217056 
L 311.39276 140.600348 
L 311.71774 140.236517 
L 312.367699 138.859901 
L 312.692678 139.233356 
L 313.017658 139.070769 
L 313.342637 138.628745 
L 313.667617 138.84258 
L 313.992596 140.176771 
L 314.317576 139.479036 
L 314.642555 139.869804 
L 314.967535 139.639182 
L 315.292514 140.122373 
L 315.617494 138.256153 
L 315.942473 138.021747 
L 316.592432 141.320345 
L 316.917412 141.509712 
L 317.567371 141.189763 
L 317.892351 140.014198 
L 318.54231 135.503963 
L 318.867289 136.138712 
L 319.192269 138.193144 
L 319.517248 136.471604 
L 319.842228 135.785765 
L 320.167207 137.294423 
L 320.492187 139.525213 
L 320.817166 140.121636 
L 321.142146 139.163808 
L 321.792105 138.173875 
L 322.117084 137.977589 
L 322.442064 136.473035 
L 322.767043 136.940632 
L 323.092023 135.639539 
L 323.417002 137.819649 
L 323.741982 139.069748 
L 324.391941 137.492056 
L 324.716921 136.660797 
L 325.0419 138.400979 
L 325.36688 139.11734 
L 326.016839 139.04672 
L 326.341818 137.666292 
L 326.666798 138.4427 
L 326.991777 137.623032 
L 327.316757 137.96383 
L 327.641736 137.96 
L 327.966716 138.345141 
L 328.616675 137.086751 
L 328.941654 138.556604 
L 329.266634 139.029193 
L 329.916593 137.588006 
L 330.241572 137.352411 
L 330.566552 137.660882 
L 330.891532 139.4124 
L 331.216511 138.719847 
L 331.541491 139.020967 
L 331.86647 138.419747 
L 332.516429 135.413533 
L 332.841409 136.837861 
L 333.166388 136.325007 
L 333.491368 136.663143 
L 333.816347 137.450472 
L 334.141327 137.699614 
L 334.466306 137.180164 
L 334.791286 137.921542 
L 335.116265 137.855227 
L 336.091204 138.892062 
L 336.416183 137.516234 
L 336.741163 135.641426 
L 337.066143 135.592461 
L 337.391122 135.989294 
L 337.716102 135.756317 
L 338.366061 137.495274 
L 338.69104 137.481535 
L 339.01602 136.994263 
L 339.340999 138.282183 
L 339.665979 137.23657 
L 340.315938 138.18591 
L 340.640917 138.454444 
L 340.965897 136.514767 
L 341.290876 136.349279 
L 341.615856 137.248039 
L 341.940835 136.421616 
L 342.265815 139.075326 
L 342.590794 139.308858 
L 343.240753 140.555853 
L 343.565733 138.435611 
L 343.890713 138.400171 
L 344.215692 138.992131 
L 344.865651 137.071541 
L 345.190631 136.674189 
L 345.51561 136.526384 
L 346.165569 140.718428 
L 346.490549 139.481726 
L 347.140508 137.973514 
L 347.465487 136.08989 
L 347.790467 136.430325 
L 348.115446 137.237322 
L 348.440426 136.872641 
L 348.765405 137.093305 
L 349.090385 136.450623 
L 349.415364 136.693478 
L 349.740344 137.720895 
L 350.065324 137.590051 
L 350.390303 138.476247 
L 351.040262 134.350139 
L 352.34018 138.655898 
L 352.66516 139.245939 
L 352.990139 139.181433 
L 353.315119 139.249313 
L 353.640098 136.785886 
L 353.965078 137.072432 
L 354.290057 137.188482 
L 354.615037 137.162622 
L 354.940016 136.428711 
L 355.264996 138.69984 
L 355.589975 138.563572 
L 355.914955 138.274283 
L 356.239934 138.557001 
L 356.889894 140.451198 
L 357.214873 140.979651 
L 357.539853 138.574158 
L 357.864832 137.833547 
L 358.189812 139.31877 
L 358.514791 139.332059 
L 359.16475 137.571529 
L 359.48973 138.895736 
L 359.814709 138.127107 
L 360.139689 137.693071 
L 360.464668 138.457414 
L 360.789648 138.376907 
L 361.114627 139.252602 
L 361.439607 138.177893 
L 361.764586 139.115908 
L 362.089566 138.972531 
L 362.414545 139.518837 
L 362.739525 138.624354 
L 363.064505 138.317215 
L 363.389484 139.169671 
L 363.714464 139.037446 
L 364.039443 139.065111 
L 365.014382 141.172503 
L 365.339361 141.429902 
L 365.664341 140.570826 
L 365.98932 140.19258 
L 366.3143 141.294493 
L 366.639279 139.802038 
L 366.964259 139.361404 
L 367.289238 139.398066 
L 367.614218 140.294507 
L 367.939197 139.727093 
L 368.589156 140.223283 
L 368.914136 140.178148 
L 369.239115 141.071163 
L 369.564095 139.218926 
L 370.214054 140.99149 
L 370.539034 142.656817 
L 370.864013 143.265727 
L 371.513972 140.123225 
L 372.163931 142.746688 
L 372.81389 143.340827 
L 373.13887 144.753508 
L 373.463849 143.529165 
L 374.113808 144.877568 
L 374.438788 143.627877 
L 374.763767 144.326917 
L 375.088747 143.556032 
L 375.413726 143.125593 
L 375.738706 143.620895 
L 376.063686 144.50853 
L 376.388665 144.311652 
L 376.713645 145.204779 
L 377.038624 143.902423 
L 377.363604 143.599612 
L 377.688583 143.975749 
L 378.013563 141.401453 
L 378.338542 141.569277 
L 378.663522 141.991784 
L 379.313481 140.930704 
L 380.613399 143.990175 
L 381.263358 144.228781 
L 381.588337 142.638885 
L 381.913317 142.02012 
L 382.238296 142.616754 
L 382.563276 142.307406 
L 382.888256 142.247098 
L 383.538215 143.892541 
L 383.863194 142.837544 
L 384.188174 140.211096 
L 384.513153 139.856836 
L 384.838133 141.832776 
L 385.163112 142.261671 
L 385.488092 141.996758 
L 386.138051 140.869421 
L 386.46303 139.132073 
L 386.78801 140.956529 
L 387.112989 140.682088 
L 387.762948 142.176501 
L 388.087928 141.416494 
L 388.412907 143.233704 
L 388.737887 141.535357 
L 389.062867 141.409986 
L 389.387846 140.581807 
L 389.712826 140.269916 
L 390.037805 141.273448 
L 390.362785 141.00612 
L 390.687764 140.013247 
L 391.337723 140.728876 
L 391.662703 140.030747 
L 391.987682 140.886255 
L 392.312662 141.329543 
L 392.637641 139.443426 
L 392.962621 138.750396 
L 393.2876 138.370328 
L 393.61258 136.988503 
L 393.937559 136.944281 
L 394.262539 137.33034 
L 394.587518 136.963692 
L 394.912498 136.141108 
L 395.237477 136.022742 
L 395.562457 136.116479 
L 395.887437 135.739832 
L 396.212416 136.475849 
L 396.862375 133.943525 
L 397.187355 134.480883 
L 397.512334 134.500087 
L 397.837314 135.359308 
L 398.487273 134.255399 
L 398.487273 134.255399 
" clip-path="url(#p3e6faaa73d)" style="fill: none; stroke: #1f77b4; stroke-width: 1.5; stroke-linecap: square"/>
   </g>
   <g id="patch_3">
    <path d="M 57.6 162.432 
L 57.6 41.472 
" style="fill: none; stroke: #000000; stroke-width: 0.8; stroke-linejoin: miter; stroke-linecap: square"/>
   </g>
   <g id="patch_4">
    <path d="M 414.72 162.432 
L 414.72 41.472 
" style="fill: none; stroke: #000000; stroke-width: 0.8; stroke-linejoin: miter; stroke-linecap: square"/>
   </g>
   <g id="patch_5">
    <path d="M 57.6 162.432 
L 414.72 162.432 
" style="fill: none; stroke: #000000; stroke-width: 0.8; stroke-linejoin: miter; stroke-linecap: square"/>
   </g>
   <g id="patch_6">
    <path d="M 57.6 41.472 
L 414.72 41.472 
" style="fill: none; stroke: #000000; stroke-width: 0.8; stroke-linejoin: miter; stroke-linecap: square"/>
   </g>
   <g id="text_12">
    <!-- Template -->
    <g transform="translate(208.782187 35.472) scale(0.12 -0.12)">
     <defs>
      <path id="DejaVuSans-54" d="M -19 4666 
L 3928 4666 
L 3928 4134 
L 2272 4134 
L 2272 0 
L 1638 0 
L 1638 4134 
L -19 4134 
L -19 4666 
z
" transform="scale(0.015625)"/>
      <path id="DejaVuSans-61" d="M 2194 1759 
Q 1497 1759 1228 1600 
Q 959 1441 959 1056 
Q 959 750 1161 570 
Q 1363 391 1709 391 
Q 2188 391 2477 730 
Q 2766 1069 2766 1631 
L 2766 1759 
L 2194 1759 
z
M 3341 1997 
L 3341 0 
L 2766 0 
L 2766 531 
Q 2569 213 2275 61 
Q 1981 -91 1556 -91 
Q 1019 -91 701 211 
Q 384 513 384 1019 
Q 384 1609 779 1909 
Q 1175 2209 1959 2209 
L 2766 2209 
L 2766 2266 
Q 2766 2663 2505 2880 
Q 2244 3097 1772 3097 
Q 1472 3097 1187 3025 
Q 903 2953 641 2809 
L 641 3341 
Q 956 3463 1253 3523 
Q 1550 3584 1831 3584 
Q 2591 3584 2966 3190 
Q 3341 2797 3341 1997 
z
" transform="scale(0.015625)"/>
     </defs>
     <use xlink:href="#DejaVuSans-54"/>
     <use xlink:href="#DejaVuSans-65" x="44.083984"/>
     <use xlink:href="#DejaVuSans-6d" x="105.607422"/>
     <use xlink:href="#DejaVuSans-70" x="203.019531"/>
     <use xlink:href="#DejaVuSans-6c" x="266.496094"/>
     <use xlink:href="#DejaVuSans-61" x="294.279297"/>
     <use xlink:href="#DejaVuSans-74" x="355.558594"/>
     <use xlink:href="#DejaVuSans-65" x="394.767578"/>
    </g>
   </g>
  </g>
  <g id="axes_2">
   <g id="patch_7">
    <path d="M 57.6 307.584 
L 414.72 307.584 
L 414.72 186.624 
L 57.6 186.624 
z
" style="fill: #ffffff"/>
   </g>
   <g id="matplotlib.axis_3">
    <g id="xtick_6">
     <g id="line2d_11">
      <g>
       <use xlink:href="#ma3b772cdbe" x="106.33068" y="307.584" style="stroke: #000000; stroke-width: 0.8"/>
      </g>
     </g>
     <g id="text_13">
      <!-- −0.4 -->
      <g transform="translate(94.189274 322.182437) scale(0.1 -0.1)">
       <use xlink:href="#DejaVuSans-2212"/>
       <use xlink:href="#DejaVuSans-30" x="83.789062"/>
       <use xlink:href="#DejaVuSans-2e" x="147.412109"/>
       <use xlink:href="#DejaVuSans-34" x="179.199219"/>
      </g>
     </g>
    </g>
    <g id="xtick_7">
     <g id="line2d_12">
      <g>
       <use xlink:href="#ma3b772cdbe" x="171.326585" y="307.584" style="stroke: #000000; stroke-width: 0.8"/>
      </g>
     </g>
     <g id="text_14">
      <!-- −0.2 -->
      <g transform="translate(159.185179 322.182437) scale(0.1 -0.1)">
       <use xlink:href="#DejaVuSans-2212"/>
       <use xlink:href="#DejaVuSans-30" x="83.789062"/>
       <use xlink:href="#DejaVuSans-2e" x="147.412109"/>
       <use xlink:href="#DejaVuSans-32" x="179.199219"/>
      </g>
     </g>
    </g>
    <g id="xtick_8">
     <g id="line2d_13">
      <g>
       <use xlink:href="#ma3b772cdbe" x="236.32249" y="307.584" style="stroke: #000000; stroke-width: 0.8"/>
      </g>
     </g>
     <g id="text_15">
      <!-- 0.0 -->
      <g transform="translate(228.370927 322.182437) scale(0.1 -0.1)">
       <use xlink:href="#DejaVuSans-30"/>
       <use xlink:href="#DejaVuSans-2e" x="63.623047"/>
       <use xlink:href="#DejaVuSans-30" x="95.410156"/>
      </g>
     </g>
    </g>
    <g id="xtick_9">
     <g id="line2d_14">
      <g>
       <use xlink:href="#ma3b772cdbe" x="301.318395" y="307.584" style="stroke: #000000; stroke-width: 0.8"/>
      </g>
     </g>
     <g id="text_16">
      <!-- 0.2 -->
      <g transform="translate(293.366832 322.182437) scale(0.1 -0.1)">
       <use xlink:href="#DejaVuSans-30"/>
       <use xlink:href="#DejaVuSans-2e" x="63.623047"/>
       <use xlink:href="#DejaVuSans-32" x="95.410156"/>
      </g>
     </g>
    </g>
    <g id="xtick_10">
     <g id="line2d_15">
      <g>
       <use xlink:href="#ma3b772cdbe" x="366.3143" y="307.584" style="stroke: #000000; stroke-width: 0.8"/>
      </g>
     </g>
     <g id="text_17">
      <!-- 0.4 -->
      <g transform="translate(358.362737 322.182437) scale(0.1 -0.1)">
       <use xlink:href="#DejaVuSans-30"/>
       <use xlink:href="#DejaVuSans-2e" x="63.623047"/>
       <use xlink:href="#DejaVuSans-34" x="95.410156"/>
      </g>
     </g>
    </g>
    <g id="text_18">
     <!-- time -->
     <g transform="translate(224.863906 335.860562) scale(0.1 -0.1)">
      <use xlink:href="#DejaVuSans-74"/>
      <use xlink:href="#DejaVuSans-69" x="39.208984"/>
      <use xlink:href="#DejaVuSans-6d" x="66.992188"/>
      <use xlink:href="#DejaVuSans-65" x="164.404297"/>
     </g>
    </g>
   </g>
   <g id="matplotlib.axis_4">
    <g id="ytick_5">
     <g id="line2d_16">
      <g>
       <use xlink:href="#m375b731ae4" x="57.6" y="305.135069" style="stroke: #000000; stroke-width: 0.8"/>
      </g>
     </g>
     <g id="text_19">
      <!-- −0.25 -->
      <g transform="translate(19.954687 308.934287) scale(0.1 -0.1)">
       <defs>
        <path id="DejaVuSans-35" d="M 691 4666 
L 3169 4666 
L 3169 4134 
L 1269 4134 
L 1269 2991 
Q 1406 3038 1543 3061 
Q 1681 3084 1819 3084 
Q 2600 3084 3056 2656 
Q 3513 2228 3513 1497 
Q 3513 744 3044 326 
Q 2575 -91 1722 -91 
Q 1428 -91 1123 -41 
Q 819 9 494 109 
L 494 744 
Q 775 591 1075 516 
Q 1375 441 1709 441 
Q 2250 441 2565 725 
Q 2881 1009 2881 1497 
Q 2881 1984 2565 2268 
Q 2250 2553 1709 2553 
Q 1456 2553 1204 2497 
Q 953 2441 691 2322 
L 691 4666 
z
" transform="scale(0.015625)"/>
       </defs>
       <use xlink:href="#DejaVuSans-2212"/>
       <use xlink:href="#DejaVuSans-30" x="83.789062"/>
       <use xlink:href="#DejaVuSans-2e" x="147.412109"/>
       <use xlink:href="#DejaVuSans-32" x="179.199219"/>
       <use xlink:href="#DejaVuSans-35" x="242.822266"/>
      </g>
     </g>
    </g>
    <g id="ytick_6">
     <g id="line2d_17">
      <g>
       <use xlink:href="#m375b731ae4" x="57.6" y="282.532491" style="stroke: #000000; stroke-width: 0.8"/>
      </g>
     </g>
     <g id="text_20">
      <!-- 0.00 -->
      <g transform="translate(28.334375 286.33171) scale(0.1 -0.1)">
       <use xlink:href="#DejaVuSans-30"/>
       <use xlink:href="#DejaVuSans-2e" x="63.623047"/>
       <use xlink:href="#DejaVuSans-30" x="95.410156"/>
       <use xlink:href="#DejaVuSans-30" x="159.033203"/>
      </g>
     </g>
    </g>
    <g id="ytick_7">
     <g id="line2d_18">
      <g>
       <use xlink:href="#m375b731ae4" x="57.6" y="259.929914" style="stroke: #000000; stroke-width: 0.8"/>
      </g>
     </g>
     <g id="text_21">
      <!-- 0.25 -->
      <g transform="translate(28.334375 263.729133) scale(0.1 -0.1)">
       <use xlink:href="#DejaVuSans-30"/>
       <use xlink:href="#DejaVuSans-2e" x="63.623047"/>
       <use xlink:href="#DejaVuSans-32" x="95.410156"/>
       <use xlink:href="#DejaVuSans-35" x="159.033203"/>
      </g>
     </g>
    </g>
    <g id="ytick_8">
     <g id="line2d_19">
      <g>
       <use xlink:href="#m375b731ae4" x="57.6" y="237.327337" style="stroke: #000000; stroke-width: 0.8"/>
      </g>
     </g>
     <g id="text_22">
      <!-- 0.50 -->
      <g transform="translate(28.334375 241.126555) scale(0.1 -0.1)">
       <use xlink:href="#DejaVuSans-30"/>
       <use xlink:href="#DejaVuSans-2e" x="63.623047"/>
       <use xlink:href="#DejaVuSans-35" x="95.410156"/>
       <use xlink:href="#DejaVuSans-30" x="159.033203"/>
      </g>
     </g>
    </g>
    <g id="ytick_9">
     <g id="line2d_20">
      <g>
       <use xlink:href="#m375b731ae4" x="57.6" y="214.724759" style="stroke: #000000; stroke-width: 0.8"/>
      </g>
     </g>
     <g id="text_23">
      <!-- 0.75 -->
      <g transform="translate(28.334375 218.523978) scale(0.1 -0.1)">
       <defs>
        <path id="DejaVuSans-37" d="M 525 4666 
L 3525 4666 
L 3525 4397 
L 1831 0 
L 1172 0 
L 2766 4134 
L 525 4134 
L 525 4666 
z
" transform="scale(0.015625)"/>
       </defs>
       <use xlink:href="#DejaVuSans-30"/>
       <use xlink:href="#DejaVuSans-2e" x="63.623047"/>
       <use xlink:href="#DejaVuSans-37" x="95.410156"/>
       <use xlink:href="#DejaVuSans-35" x="159.033203"/>
      </g>
     </g>
    </g>
    <g id="ytick_10">
     <g id="line2d_21">
      <g>
       <use xlink:href="#m375b731ae4" x="57.6" y="192.122182" style="stroke: #000000; stroke-width: 0.8"/>
      </g>
     </g>
     <g id="text_24">
      <!-- 1.00 -->
      <g transform="translate(28.334375 195.921401) scale(0.1 -0.1)">
       <defs>
        <path id="DejaVuSans-31" d="M 794 531 
L 1825 531 
L 1825 4091 
L 703 3866 
L 703 4441 
L 1819 4666 
L 2450 4666 
L 2450 531 
L 3481 531 
L 3481 0 
L 794 0 
L 794 531 
z
" transform="scale(0.015625)"/>
       </defs>
       <use xlink:href="#DejaVuSans-31"/>
       <use xlink:href="#DejaVuSans-2e" x="63.623047"/>
       <use xlink:href="#DejaVuSans-30" x="95.410156"/>
       <use xlink:href="#DejaVuSans-30" x="159.033203"/>
      </g>
     </g>
    </g>
    <g id="text_25">
     <!-- Amplitude -->
     <g transform="translate(13.875 272.726656) rotate(-90) scale(0.1 -0.1)">
      <use xlink:href="#DejaVuSans-41"/>
      <use xlink:href="#DejaVuSans-6d" x="68.408203"/>
      <use xlink:href="#DejaVuSans-70" x="165.820312"/>
      <use xlink:href="#DejaVuSans-6c" x="229.296875"/>
      <use xlink:href="#DejaVuSans-69" x="257.080078"/>
      <use xlink:href="#DejaVuSans-74" x="284.863281"/>
      <use xlink:href="#DejaVuSans-75" x="324.072266"/>
      <use xlink:href="#DejaVuSans-64" x="387.451172"/>
      <use xlink:href="#DejaVuSans-65" x="450.927734"/>
     </g>
    </g>
   </g>
   <g id="line2d_22">
    <path d="M 73.832727 283.13727 
L 74.807666 283.4178 
L 75.782604 283.390598 
L 76.757543 283.061467 
L 79.682359 281.660215 
L 80.657297 281.609278 
L 81.632236 281.88224 
L 82.932154 282.578331 
L 84.232072 283.258303 
L 85.207011 283.499378 
L 85.85697 283.473663 
L 86.831908 283.162284 
L 88.456806 282.23236 
L 89.431744 281.743498 
L 90.406683 281.525553 
L 91.056642 281.575397 
L 92.031581 281.926861 
L 95.281376 283.554374 
L 95.931335 283.5617 
L 96.581294 283.405848 
L 97.556233 282.923135 
L 99.831089 281.611477 
L 100.481048 281.460253 
L 101.131007 281.477671 
L 101.780966 281.662596 
L 102.755905 282.187136 
L 104.705782 283.395905 
L 105.355741 283.610239 
L 106.0057 283.655714 
L 106.655659 283.523422 
L 107.630598 283.040749 
L 109.905455 281.591747 
L 110.555414 281.392475 
L 111.205373 281.372049 
L 111.855332 281.535576 
L 112.83027 282.066063 
L 115.105127 283.553873 
L 115.755086 283.736105 
L 116.405045 283.729261 
L 117.055004 283.532366 
L 118.029943 282.951743 
L 119.97982 281.575661 
L 120.629779 281.321433 
L 121.279738 281.256607 
L 121.929697 281.393623 
L 122.904636 281.926931 
L 125.504472 283.726343 
L 126.154431 283.867844 
L 126.80439 283.798951 
L 127.454349 283.52809 
L 128.429287 282.83926 
L 130.054185 281.563763 
L 130.704144 281.245973 
L 131.354103 281.128609 
L 132.004062 281.232806 
L 132.654021 281.544796 
L 133.62896 282.292322 
L 135.253857 283.610387 
L 135.903817 283.916689 
L 136.553776 284.007031 
L 137.203735 283.864234 
L 137.853694 283.507899 
L 138.828632 282.698071 
L 140.45353 281.337421 
L 141.103489 281.04489 
L 141.753448 280.984803 
L 142.403407 281.169924 
L 143.053366 281.574258 
L 144.353284 282.769932 
L 145.328223 283.635341 
L 145.978182 284.021192 
L 146.628141 284.175913 
L 147.2781 284.07154 
L 147.928059 283.720851 
L 148.902998 282.855894 
L 150.527895 281.291039 
L 151.177854 280.913801 
L 151.827813 280.788267 
L 152.477772 280.938297 
L 153.127731 281.344342 
L 154.10267 282.291913 
L 155.727568 283.925996 
L 156.377527 284.292268 
L 157.027486 284.384453 
L 157.677445 284.183357 
L 158.327404 283.716079 
L 159.302342 282.678138 
L 160.60226 281.241993 
L 161.252219 280.760079 
L 161.902179 280.55199 
L 162.552138 280.655662 
L 163.202097 281.060142 
L 164.177035 282.090693 
L 165.801933 284.00775 
L 166.451892 284.487463 
L 167.101851 284.664669 
L 167.75181 284.50542 
L 168.401769 284.028631 
L 169.376708 282.882275 
L 171.001605 280.848344 
L 171.651564 280.372661 
L 172.301523 280.231739 
L 172.951482 280.454895 
L 173.601441 281.014124 
L 174.57638 282.291595 
L 175.876298 284.104991 
L 176.526257 284.73298 
L 177.176216 285.023599 
L 177.826175 284.923028 
L 178.476134 284.438506 
L 179.126093 283.638552 
L 181.40095 280.33206 
L 182.050909 279.87099 
L 182.700868 279.823992 
L 183.350827 280.208725 
L 184.000786 280.974533 
L 184.975725 282.578347 
L 186.275643 284.684495 
L 186.925602 285.339677 
L 187.575561 285.563305 
L 187.900541 285.495585 
L 188.5505 285.006456 
L 189.200459 284.107732 
L 190.500377 281.657753 
L 191.475315 280.001279 
L 192.125274 279.330038 
L 192.450254 279.174655 
L 192.775233 279.151809 
L 193.100213 279.264415 
L 193.750172 279.880832 
L 194.400131 280.941692 
L 196.999967 285.943892 
L 197.649926 286.360663 
L 197.974906 286.345626 
L 198.299885 286.177001 
L 198.949844 285.401412 
L 199.599803 284.137095 
L 201.87466 278.930477 
L 202.524619 278.214272 
L 202.849599 278.101531 
L 203.174578 278.164955 
L 203.499558 278.405508 
L 204.149517 279.386749 
L 204.799476 280.915866 
L 207.074333 286.937211 
L 207.724292 287.690344 
L 208.049271 287.77261 
L 208.374251 287.645447 
L 208.69923 287.308992 
L 209.349189 286.050261 
L 209.999148 284.159331 
L 211.949025 277.717213 
L 212.598984 276.469615 
L 212.923964 276.178132 
L 213.248943 276.135269 
L 213.573923 276.349896 
L 213.898903 276.820941 
L 214.548862 278.477222 
L 215.198821 280.897267 
L 217.148698 288.945611 
L 217.798657 290.436756 
L 218.123636 290.75153 
L 218.448616 290.744227 
L 218.773595 290.403096 
L 219.098575 289.729034 
L 219.748534 287.451003 
L 220.398493 284.174256 
L 222.34837 273.33433 
L 222.998329 271.351468 
L 223.323309 270.95831 
L 223.648288 271.018029 
L 223.973268 271.552427 
L 224.298247 272.566414 
L 224.948206 275.962941 
L 225.598165 280.886046 
L 227.548043 297.892762 
L 228.198002 301.295731 
L 228.522981 302.062907 
L 228.847961 302.085818 
L 229.17294 301.294262 
L 229.49792 299.638178 
L 229.822899 297.089929 
L 230.472858 289.327653 
L 231.122817 278.27959 
L 232.097756 257.087143 
L 234.047633 212.310873 
L 234.697592 201.462009 
L 235.347551 194.513909 
L 235.672531 192.723713 
L 235.99751 192.122182 
L 236.32249 192.723713 
L 236.647469 194.513909 
L 236.972449 197.44999 
L 237.622408 206.454839 
L 238.272367 218.893338 
L 239.897265 257.087143 
L 240.872203 278.27959 
L 241.522162 289.327653 
L 242.172121 297.089929 
L 242.497101 299.638178 
L 242.82208 301.294262 
L 243.14706 302.085818 
L 243.472039 302.062907 
L 243.797019 301.295731 
L 244.121998 299.871819 
L 244.771957 295.470617 
L 247.371794 274.047011 
L 248.021753 271.552427 
L 248.346732 271.018029 
L 248.671712 270.95831 
L 248.996691 271.351468 
L 249.321671 272.160328 
L 249.97163 274.811902 
L 250.946568 280.342106 
L 251.921507 285.91346 
L 252.571466 288.73601 
L 253.221425 290.403096 
L 253.546405 290.744227 
L 253.871384 290.75153 
L 254.196364 290.436756 
L 254.521343 289.823437 
L 255.171302 287.846205 
L 256.146241 283.739937 
L 257.121179 279.610381 
L 257.771138 277.537147 
L 258.421097 276.349896 
L 258.746077 276.135269 
L 259.071057 276.178132 
L 259.396036 276.469615 
L 260.045995 277.717213 
L 260.695954 279.639369 
L 262.645831 286.050261 
L 263.29579 287.308992 
L 263.62077 287.645447 
L 263.945749 287.77261 
L 264.270729 287.690344 
L 264.595708 287.406658 
L 265.245667 286.304546 
L 266.220606 283.732973 
L 267.520524 280.094835 
L 268.170483 278.817113 
L 268.820442 278.164955 
L 269.145422 278.101531 
L 269.470401 278.214272 
L 269.795381 278.495344 
L 270.44534 279.499647 
L 271.420278 281.744567 
L 272.720197 284.820455 
L 273.370156 285.858885 
L 274.020115 286.345626 
L 274.345094 286.360663 
L 274.670074 286.224113 
L 275.320033 285.533425 
L 275.969992 284.399121 
L 278.244848 279.880832 
L 278.894808 279.264415 
L 279.219787 279.151809 
L 279.544767 279.174655 
L 279.869746 279.330038 
L 280.519705 280.001279 
L 281.494644 281.657753 
L 283.119541 284.601434 
L 283.7695 285.30801 
L 284.419459 285.563305 
L 284.744439 285.5101 
L 285.394398 285.060319 
L 286.044357 284.228316 
L 288.644193 280.208725 
L 289.294152 279.823992 
L 289.944111 279.87099 
L 290.59407 280.33206 
L 291.244029 281.125593 
L 293.518886 284.438506 
L 294.168845 284.923028 
L 294.818804 285.023599 
L 295.468763 284.73298 
L 296.118722 284.104991 
L 297.41864 282.291595 
L 298.393579 281.014124 
L 299.043538 280.454895 
L 299.693497 280.231739 
L 300.343456 280.372661 
L 300.993415 280.848344 
L 301.968354 282.001638 
L 303.593251 284.028631 
L 304.24321 284.50542 
L 304.89317 284.664669 
L 305.543129 284.487463 
L 306.193088 284.00775 
L 307.168026 282.906702 
L 308.467944 281.358447 
L 309.117903 280.822926 
L 309.767862 280.564366 
L 310.417821 280.618333 
L 311.067781 280.970952 
L 312.042719 281.917669 
L 313.667617 283.716079 
L 314.317576 284.183357 
L 314.967535 284.384453 
L 315.617494 284.292268 
L 316.267453 283.925996 
L 317.242391 283.006919 
L 318.867289 281.344342 
L 319.517248 280.938297 
L 320.167207 280.788267 
L 320.817166 280.913801 
L 321.467125 281.291039 
L 322.442064 282.183089 
L 324.066962 283.720851 
L 324.716921 284.07154 
L 325.36688 284.175913 
L 326.016839 284.021192 
L 326.666798 283.635341 
L 327.966716 282.450532 
L 329.266634 281.347771 
L 329.916593 281.047441 
L 330.566552 280.984085 
L 331.216511 281.164384 
L 331.86647 281.556768 
L 333.166388 282.698071 
L 334.141327 283.507899 
L 334.791286 283.864234 
L 335.441245 284.007031 
L 336.091204 283.916689 
L 336.741163 283.610387 
L 337.716102 282.864354 
L 339.340999 281.544796 
L 339.990958 281.232806 
L 340.640917 281.128609 
L 341.290876 281.245973 
L 341.940835 281.563763 
L 343.240753 282.568863 
L 344.540672 283.52809 
L 345.190631 283.798951 
L 345.84059 283.867844 
L 346.490549 283.726343 
L 347.465487 283.181664 
L 349.740344 281.532953 
L 350.390303 281.30036 
L 351.040262 281.263822 
L 351.690221 281.426865 
L 352.66516 281.977278 
L 354.940016 283.532366 
L 355.589975 283.729261 
L 356.239934 283.736105 
L 356.889894 283.553873 
L 357.864832 282.999951 
L 359.814709 281.679891 
L 360.464668 281.431656 
L 361.114627 281.358895 
L 361.764586 281.471214 
L 362.739525 281.936736 
L 365.339361 283.523422 
L 365.98932 283.655714 
L 366.639279 283.610239 
L 367.614218 283.235558 
L 370.864013 281.477671 
L 371.513972 281.460253 
L 372.163931 281.611477 
L 373.13887 282.092759 
L 375.413726 283.405848 
L 376.063686 283.5617 
L 376.713645 283.554374 
L 377.688583 283.250221 
L 378.988501 282.496123 
L 380.288419 281.777475 
L 381.263358 281.530445 
L 381.913317 281.560737 
L 382.888256 281.88348 
L 384.513153 282.818959 
L 385.488092 283.298489 
L 386.46303 283.505953 
L 387.112989 283.454368 
L 388.087928 283.115345 
L 391.012744 281.66661 
L 391.987682 281.606174 
L 392.962621 281.868068 
L 394.262539 282.542356 
L 395.562457 283.199723 
L 396.537396 283.435863 
L 397.512334 283.355483 
L 398.487273 282.990298 
L 398.487273 282.990298 
" clip-path="url(#p64a7393473)" style="fill: none; stroke: #1f77b4; stroke-width: 1.5; stroke-linecap: square"/>
   </g>
   <g id="patch_8">
    <path d="M 57.6 307.584 
L 57.6 186.624 
" style="fill: none; stroke: #000000; stroke-width: 0.8; stroke-linejoin: miter; stroke-linecap: square"/>
   </g>
   <g id="patch_9">
    <path d="M 414.72 307.584 
L 414.72 186.624 
" style="fill: none; stroke: #000000; stroke-width: 0.8; stroke-linejoin: miter; stroke-linecap: square"/>
   </g>
   <g id="patch_10">
    <path d="M 57.6 307.584 
L 414.72 307.584 
" style="fill: none; stroke: #000000; stroke-width: 0.8; stroke-linejoin: miter; stroke-linecap: square"/>
   </g>
   <g id="patch_11">
    <path d="M 57.6 186.624 
L 414.72 186.624 
" style="fill: none; stroke: #000000; stroke-width: 0.8; stroke-linejoin: miter; stroke-linecap: square"/>
   </g>
   <g id="text_26">
    <!-- Wavelet -->
    <g transform="translate(211.979062 180.624) scale(0.12 -0.12)">
     <defs>
      <path id="DejaVuSans-57" d="M 213 4666 
L 850 4666 
L 1831 722 
L 2809 4666 
L 3519 4666 
L 4500 722 
L 5478 4666 
L 6119 4666 
L 4947 0 
L 4153 0 
L 3169 4050 
L 2175 0 
L 1381 0 
L 213 4666 
z
" transform="scale(0.015625)"/>
      <path id="DejaVuSans-76" d="M 191 3500 
L 800 3500 
L 1894 563 
L 2988 3500 
L 3597 3500 
L 2284 0 
L 1503 0 
L 191 3500 
z
" transform="scale(0.015625)"/>
     </defs>
     <use xlink:href="#DejaVuSans-57"/>
     <use xlink:href="#DejaVuSans-61" x="92.501953"/>
     <use xlink:href="#DejaVuSans-76" x="153.78125"/>
     <use xlink:href="#DejaVuSans-65" x="212.960938"/>
     <use xlink:href="#DejaVuSans-6c" x="274.484375"/>
     <use xlink:href="#DejaVuSans-65" x="302.267578"/>
     <use xlink:href="#DejaVuSans-74" x="363.791016"/>
    </g>
   </g>
  </g>
 </g>
 <defs>
  <clipPath id="p3e6faaa73d">
   <rect x="57.6" y="41.472" width="357.12" height="120.96"/>
  </clipPath>
  <clipPath id="p64a7393473">
   <rect x="57.6" y="186.624" width="357.12" height="120.96"/>
  </clipPath>
 </defs>
</svg>
